<?xml version="1.0" standalone="no"?>
<!DOCTYPE svg PUBLIC "-//W3C//DTD SVG 20010904//EN"
 "http://www.w3.org/TR/2001/REC-SVG-20010904/DTD/svg10.dtd">
<svg version="1.0" xmlns="http://www.w3.org/2000/svg"
 width="339.000000pt" height="369.000000pt" viewBox="0 0 339.000000 369.000000"
 preserveAspectRatio="xMidYMid meet">

<g transform="translate(0.000000,369.000000) scale(0.100000,-0.100000)"
fill="#000000" stroke="none">
<path d="M875 3650 c-115 -11 -180 -29 -205 -55 -25 -27 -20 9 -76 -565 -20
-212 -38 -386 -39 -388 -1 -2 -58 8 -127 22 -135 27 -364 53 -374 43 -19 -18
13 -62 94 -128 100 -83 124 -95 285 -142 66 -19 122 -39 127 -43 4 -5 11 -55
15 -111 l7 -103 -37 0 c-39 0 -75 -15 -75 -31 0 -5 11 -27 25 -48 27 -40 46
-141 27 -141 -12 0 -64 88 -83 142 -10 29 -16 35 -26 26 -19 -16 -16 -49 9
-88 20 -31 23 -52 28 -184 4 -107 9 -151 18 -154 9 -3 12 24 12 112 0 69 4
116 10 116 16 0 50 -77 50 -112 0 -18 -7 -54 -14 -80 -18 -58 -5 -85 37 -74
21 5 29 1 45 -27 30 -50 42 -96 44 -175 2 -54 -2 -76 -13 -87 -34 -34 -69 13
-69 94 0 48 -20 81 -48 81 -16 0 -17 3 23 -125 34 -109 38 -115 89 -159 50
-43 54 -49 60 -103 13 -103 55 -256 95 -338 36 -74 139 -225 175 -254 14 -12
16 -10 16 7 0 56 -27 138 -79 242 -88 175 -113 256 -131 427 -12 114 -27 187
-47 226 -16 33 -7 34 46 7 56 -28 372 -39 478 -17 108 23 196 90 210 158 3 16
10 29 16 29 6 0 8 -28 3 -81 -4 -54 -3 -78 4 -74 6 4 10 61 10 146 0 148 9
191 52 236 37 39 95 26 123 -27 12 -23 15 -67 15 -200 0 -181 7 -217 49 -254
27 -24 26 -51 -2 -100 -33 -59 -91 -101 -135 -99 -44 1 -147 45 -159 68 -9 15
-11 15 -22 1 -28 -33 -81 -13 -81 30 0 30 -17 40 -25 15 -8 -25 18 -76 49 -97
14 -8 51 -19 83 -24 32 -4 71 -13 86 -19 35 -14 94 -14 102 -1 10 16 33 12 54
-9 17 -17 23 -17 78 -6 57 12 106 9 178 -10 l30 -8 -32 30 c-21 20 -33 41 -33
57 0 35 10 33 43 -9 15 -19 33 -35 39 -35 6 0 3 10 -8 23 -35 38 -93 131 -104
164 -6 17 -18 34 -26 37 -15 6 -19 -14 -5 -30 4 -5 13 -24 20 -43 14 -43 1
-61 -46 -61 -31 0 -34 2 -26 23 4 12 7 51 7 85 -1 60 0 63 20 58 11 -3 47 -9
80 -13 57 -6 58 -6 51 16 -6 21 -5 22 17 14 34 -12 312 -4 388 12 35 7 66 13
67 11 1 -1 -32 -53 -74 -116 -42 -63 -90 -144 -107 -180 -31 -64 -31 -67 -29
-205 4 -190 40 -333 68 -268 5 10 10 95 13 188 4 164 5 172 34 229 16 32 31
56 33 54 2 -2 -1 -36 -7 -75 -10 -65 -9 -75 10 -121 28 -65 28 -87 -3 -203
-14 -51 -28 -107 -31 -124 -5 -30 -5 -30 36 15 88 95 182 338 201 521 l12 115
31 -4 c26 -2 35 3 59 37 35 51 35 64 -2 56 -17 -3 -39 -1 -50 5 -19 10 -21 20
-21 134 0 118 29 383 49 454 6 19 24 59 41 89 40 70 38 107 -5 111 l-30 3 5
102 5 102 35 7 c19 4 85 16 146 27 150 27 260 63 377 123 80 41 97 54 97 73 0
40 -40 45 -336 45 -150 0 -275 4 -278 8 -3 5 -21 134 -41 288 -80 628 -71 592
-139 613 -49 16 -375 42 -806 66 -269 15 -708 18 -835 5z m-11 -611 l31 -27
-33 -163 c-35 -175 -40 -240 -19 -257 22 -18 178 -59 272 -72 50 -6 253 -14
453 -17 200 -3 359 -10 355 -14 -26 -26 -528 -39 -698 -18 -162 20 -433 86
-512 125 -40 19 -73 39 -73 43 0 4 18 13 41 20 34 10 44 20 60 55 10 23 21 68
25 100 5 41 13 61 27 71 19 13 19 17 6 41 -17 32 -16 121 1 154 12 22 13 22
23 4 5 -10 24 -31 41 -45z m6 -709 c3 0 -7 -8 -22 -16 -40 -21 -34 -36 7 -18
45 19 110 18 220 -3 110 -22 534 -24 740 -5 72 7 209 19 305 28 154 13 310 35
363 50 22 7 22 -17 1 -95 -16 -55 -16 -62 0 -100 21 -54 21 -57 -13 -71 -16
-6 -32 -18 -35 -26 -5 -12 -85 -14 -505 -14 l-500 0 6 55 c4 38 2 55 -6 55 -6
0 -11 -11 -11 -24 0 -14 -4 -36 -10 -50 l-10 -26 -364 0 -364 0 -7 23 c-3 12
-9 81 -12 153 l-6 132 109 -23 c60 -13 111 -24 114 -25z m144 -368 c2 -4 -16
-14 -42 -21 -83 -24 -142 -61 -165 -106 -19 -34 -22 -56 -21 -153 0 -95 -2
-109 -12 -90 -16 31 -44 167 -44 215 0 55 17 106 43 131 19 18 37 22 122 25
55 1 103 4 107 5 4 1 9 -2 12 -6z m1086 0 c0 -5 -31 -18 -70 -31 -132 -42
-167 -103 -156 -270 7 -114 -5 -111 -35 8 -27 107 -24 216 7 258 22 30 13 28
217 40 20 2 37 -1 37 -5z"/>
<path d="M2120 2294 c-76 -12 -140 -28 -140 -35 0 -13 16 -11 100 11 98 26
165 26 213 0 41 -22 47 -24 47 -12 0 4 -13 15 -29 25 -28 16 -119 21 -191 11z"/>
<path d="M895 2211 c-22 -10 -46 -25 -54 -34 -19 -23 -6 -21 29 4 25 19 37 21
97 15 37 -3 128 -21 201 -39 72 -18 132 -30 132 -25 0 4 -17 12 -37 17 -48 13
-270 67 -303 75 -14 3 -43 -3 -65 -13z"/>
<path d="M1950 2176 c-96 -18 -182 -36 -190 -39 -37 -17 140 4 293 33 l168 33
80 -23 c44 -12 82 -21 84 -18 3 3 -27 15 -67 27 -96 28 -156 26 -368 -13z"/>
<path d="M2765 2109 c-54 -41 -64 -62 -58 -129 4 -44 0 -69 -20 -120 -15 -38
-27 -94 -30 -135 -2 -42 -13 -91 -27 -123 -19 -43 -21 -57 -11 -78 13 -29 40
-42 51 -24 5 7 11 34 15 59 4 25 20 71 38 101 26 46 32 71 39 155 5 55 9 105
10 110 0 6 -2 33 -6 60 -6 42 -5 47 5 30 7 -10 14 -52 17 -92 3 -40 8 -73 11
-73 15 0 33 105 32 186 -1 118 -4 120 -66 73z"/>
<path d="M577 1622 c-10 -14 8 -81 27 -107 20 -26 19 -13 -2 60 -11 35 -21 55
-25 47z"/>
<path d="M1273 1336 c-11 -13 -28 -46 -38 -73 -9 -26 -31 -65 -47 -85 -19 -26
-24 -38 -15 -38 34 0 66 42 96 126 18 48 30 89 27 91 -2 2 -12 -7 -23 -21z"/>
<path d="M920 1159 c0 -18 20 -96 45 -175 41 -129 45 -151 45 -243 0 -55 4
-101 9 -101 4 0 12 35 16 78 8 91 8 111 -2 216 -7 69 -10 77 -22 63 -22 -27
-31 -20 -31 23 0 22 -4 40 -9 40 -4 0 -14 27 -21 60 -14 68 -30 88 -30 39z"/>
<path d="M1746 1134 c-3 -9 -13 -14 -21 -10 -8 3 -17 1 -20 -4 -4 -6 -17 -7
-30 -4 -12 3 -26 1 -29 -4 -3 -6 -31 -9 -61 -7 -47 3 -55 1 -55 -14 0 -31 -13
-32 -41 -5 -15 14 -46 30 -69 35 -37 8 -46 7 -64 -10 -12 -11 -37 -22 -58 -26
-20 -4 -48 -19 -63 -35 -16 -16 -34 -26 -44 -23 -23 6 -100 -110 -108 -163 -3
-22 -14 -56 -25 -76 -14 -29 -17 -50 -12 -91 4 -37 1 -71 -10 -109 -18 -62
-21 -163 -6 -173 5 -3 10 -14 10 -24 0 -20 40 -61 59 -61 8 0 11 8 8 20 -3 12
4 31 16 47 14 17 17 28 10 30 -7 3 11 40 43 91 54 85 54 87 35 103 -18 15 -19
19 -6 55 8 21 14 53 15 70 0 58 0 57 373 57 188 -1 362 3 386 8 24 5 52 7 62
4 28 -9 66 -83 72 -143 7 -59 38 -118 67 -127 16 -5 18 -12 13 -37 -5 -24 -3
-30 8 -26 19 6 51 126 43 163 -7 33 -26 78 -60 145 -12 25 -31 77 -42 116 -32
113 -58 154 -101 154 -39 0 -133 27 -141 40 -6 9 -12 9 -27 0 -16 -11 -26 -9
-59 12 -21 13 -44 27 -50 31 -7 4 -15 0 -18 -9z"/>
<path d="M1555 701 c-49 -3 -96 -10 -102 -14 -7 -5 -24 -32 -38 -61 -23 -48
-25 -62 -19 -125 l7 -71 -31 0 c-36 0 -47 13 -44 52 3 32 -13 36 -40 11 -17
-15 -18 -15 -18 8 0 14 -5 30 -11 36 -25 25 -89 -46 -89 -99 0 -13 -9 -38 -21
-57 -13 -22 -19 -44 -16 -60 10 -49 48 -121 63 -121 9 0 22 -7 30 -15 9 -8 26
-15 39 -15 13 0 32 -8 42 -19 10 -10 33 -26 51 -35 18 -9 44 -29 58 -45 23
-27 27 -28 74 -19 28 5 64 5 82 0 27 -7 36 -5 50 12 15 19 19 19 39 7 19 -11
23 -11 31 4 8 14 20 15 73 10 57 -6 64 -5 78 15 9 13 20 19 27 15 7 -4 18 2
27 15 9 12 40 33 70 46 34 15 57 32 60 45 4 14 13 19 31 17 20 -2 27 2 30 17
2 11 14 29 27 40 12 11 34 43 49 72 24 49 25 54 11 87 -8 19 -15 44 -15 54 0
15 -32 65 -77 121 -2 3 -9 -1 -15 -7 -7 -7 -21 -12 -32 -12 -18 0 -18 -1 -1
-20 26 -29 13 -50 -34 -50 -22 0 -43 -5 -46 -11 -4 -6 -14 -8 -22 -5 -25 10
-52 -13 -59 -50 -9 -47 -20 -34 -44 55 -36 128 -83 183 -153 179 -18 -1 -72
-4 -122 -7z"/>
</g>
</svg>
